<?xml version="1.0" encoding="UTF-8" ?>
<svg width="710" height="120" xmlns="http://www.w3.org/2000/svg">
    <rect id="bg" width="100%" height="100%" x="0" y="0" rx="0" ry="0" fill="white" />
    <g class="entity" id="User" transform="translate(0,10)">
        <rect width="260" height="40" x="10" y="10" fill="lightgrey" style="stroke-width:1;stroke:black;" />
        <text x="140" y="30" fill="black">
            <tspan dominant-baseline="central" text-anchor="middle">User</tspan>
        </text>
        <rect width="260" height="30" x="10" y="50" fill="lightgrey" style="stroke-width:1;stroke:black;" />
        <text x="20" y="65" fill="black" dominant-baseline="central">username &lt;PI&gt; USRNAME &lt;M&gt;</text>
    </g>
    <g class="entity" id="TaskList" transform="translate(430)">
        <rect width="260" height="50" x="10" y="10" fill="lightgrey" style="stroke-width:1;stroke:black;" />
        <text x="140" y="30" fill="black">
            <tspan dominant-baseline="central" text-anchor="middle">TaskList</tspan>
        </text>
        <rect width="260" height="50" x="10" y="50" fill="lightgrey" style="stroke-width:1;stroke:black;" />
        <text x="20" y="65" fill="black" dominant-baseline="central">title &lt;PI&gt; TITLE &lt;M&gt;</text>
        <text x="20" y="85" fill="black" dominant-baseline="central">description DESC</text>
    </g>
    <g class="relationship" id="TaskListOfUser">
        <line x1="270" y1="55" x2="280" y2="55" stroke-width="1" stroke="black" />
        <circle r="5" cx="285" cy="55" />
        <circle r="4" cx="285" cy="55" fill="white" />
        <line x1="290" y1="55" x2="420" y2="55" stroke-width="1" stroke="black" />
        <circle r="5" cx="425" cy="55" />
        <circle r="4" cx="425" cy="55" fill="white" />
        <line x1="430" y1="55" x2="440" y2="55" stroke-width="1" stroke="black" />
        <text x="355" y="40" fill="black" dominant-baseline="central" text-anchor="middle">TaskListOfUser</text>
    </g>
</svg>