<?xml version="1.0" encoding="UTF-8" ?>
<svg width="722.5" height="300" xmlns="http://www.w3.org/2000/svg">
    <rect id="bg" width="100%" height="100%" x="0" y="0" rx="0" ry="0" fill="white" />
    <g class="entity" id="User" transform="translate(22.5)">
        <path d="M10 10 L245 10 L245 50 L10 50 Z M10 50 L10 65 L245 65 L245 50 Z" fill="lightgrey" stroke-width="1" stroke="black" />
        <g class="entity-text" fill="black">
            <text x="127.5" y="30" dominant-baseline="central" text-anchor="middle">User</text>
        </g>
    </g>
    <g class="entity" id="UserEmail" transform="translate(457.5)">
        <path d="M10 10 L255 10 L255 50 L10 50 Z M10 50 L10 65 L255 65 L255 50 Z" fill="lightgrey" stroke-width="1" stroke="black" />
        <g class="entity-text" fill="black">
            <text x="132.5" y="30" dominant-baseline="central" text-anchor="middle">UserEmail</text>
        </g>
    </g>
    <g class="entity" id="TaskList" transform="translate(5, 225)">
        <path d="M10 10 L235 10 L235 50 L10 50 Z M10 50 L10 65 L235 65 L235 50 Z" fill="lightgrey" stroke-width="1" stroke="black" />
        <g class="entity-text" fill="black">
            <text x="117.5" y="30" dominant-baseline="central" text-anchor="middle">TaskList</text>
        </g>
    </g>
    <g class="entity" id="Task" transform="translate(462.5,210)">
        <path d="M10 10 L240 10 L240 50 L10 50 Z M10 50 L10 65 L240 65 L240 50 Z" fill="lightgrey" stroke-width="1" stroke="black" />
        <g class="entity-text" fill="black">
            <text x="125" y="30" dominant-baseline="central" text-anchor="middle">Task</text>
        </g>
    </g>
    <g class="relationship" id="EmailOfUser" stroke-width="1" stroke="black" fill="none" transform="translate(22.5, -7.5)">
        <line x1="255" y1="37.5" x2="255" y2="52.5" />
        <line x1="245" y1="45" x2="405" y2="45" />
        <line x1="405" y1="37.5" x2="405" y2="52.5" />
        <polygon points="430,35 430,55 405,45" />
        <line x1="430" y1="40" x2="445" y2="40" />
        <line x1="430" y1="45" x2="445" y2="45" />
        <line x1="430" y1="50" x2="445" y2="50" />
        <text x="345" y="30" fill="black" stroke="none" dominant-baseline="central" text-anchor="middle">EmailOfUser</text>
    </g>
    <g class="relationship" id="TaskListOfUser" stroke-width="1" stroke="black" fill="none" transform="translate(0,-15)">
        <line x1="75" y1="90" x2="90" y2="90" />
        <line x1="82.5" y1="80" x2="82.5" y2="200" />
        <circle r="5" cx="82.5" cy="205" />
        <polygon points="72.5,235 92.5,235 82.5,210" />
        <line x1="77.5" y1="235" x2="77.5" y2="250" />
        <line x1="82.5" y1="235" x2="82.5" y2="250" />
        <line x1="87.5" y1="235" x2="87.5" y2="250" />
        <text x="82.5" y="165" fill="black" stroke="none" dominant-baseline="central" text-anchor="middle">TaskListOfUser</text>
    </g>
    <g class="relationship" id="SharedTaskList" transform="translate(0,-15)">
        <line x1="162.5" y1="80" x2="172.5" y2="90" stroke-width="1" stroke="black" />
        <line x1="172.5" y1="80" x2="172.5" y2="90" stroke-width="1" stroke="black" />
        <line x1="182.5" y1="80" x2="172.5" y2="90" stroke-width="1" stroke="black" />
        <circle r="5" cx="172.5" cy="95" />
        <circle r="4" cx="172.5" cy="95" fill="white" />
        <line x1="172.5" y1="100" x2="172.5" y2="239" stroke-width="1" stroke="black" />
        <circle r="5" cx="172.5" cy="235" />
        <circle r="4" cx="172.5" cy="235" fill="white" />
        <line x1="172.5" y1="240" x2="162.5" y2="250" stroke-width="1" stroke="black" />
        <line x1="172.5" y1="240" x2="172.5" y2="250" stroke-width="1" stroke="black" />
        <line x1="172.5" y1="240" x2="182.5" y2="250" stroke-width="1" stroke="black" />
        <text x="172.5" y="165" fill="black" dominant-baseline="central" text-anchor="middle">SharedTaskList</text>
    </g>
    <g class="relationship" id="TaskOfTaskList" stroke-width="1" stroke="black" fill="none" transform="translate(22.5,-30)">
        <line x1="227.5" y1="287.5" x2="227.5" y2="302.5" />
        <line x1="217.5" y1="295" x2="400" y2="295" />
        <circle r="5" cx="405" cy="295" />
        <polygon points="435,285 435,305 410,295" />
        <line x1="435" y1="290" x2="450" y2="290" />
        <line x1="435" y1="295" x2="450" y2="295" />
        <line x1="435" y1="300" x2="450" y2="300" />
        <text x="333.75" y="280" fill="black" stroke="none" dominant-baseline="central" text-anchor="middle">TaskOfTaskList</text>
    </g>
    <g class="relationship" id="AssignedTo" transform="translate(22.5,-15)">
        <path d="M230 80 L230 90 A5 5, 0, 0 0, 230 100 M230 90 A5 5, 0, 0 1, 230 100 L230 110 L333.75 110 L333.75 250 L430 250 A5 5, 0, 1 0, 435 245 M430 250 A5 5, 0, 0 1, 435 245 M440 250 L450 250 M440 250 L450 240 M440 250 L450 260" fill="none" stroke-width="1" stroke="black" />
        <text x="333.75" y="160" fill="black" dominant-baseline="central" text-anchor="middle">AssignedTo</text>
    </g>
</svg>