<?xml version="1.0" encoding="UTF-8" ?>
<svg width="635" height="410" xmlns="http://www.w3.org/2000/svg">
    <rect id="bg" width="100%" height="100%" x="0" y="0" rx="0" ry="0" fill="white" />
    <g class="entity">
        <rect width="260" height="40" x="10" y="10" fill="lightgrey" style="stroke-width:1;stroke:black;" />
        <text x="140" y="30" fill="black" dominant-baseline="central" text-anchor="middle">User</text>
        <rect width="260" height="30" x="10" y="50" fill="lightgrey" style="stroke-width:1;stroke:black;" />
        <text x="20" y="65" fill="black" dominant-baseline="central">username &lt;pi&gt;</text>
    </g>
    <g class="entity" id="TaskList" transform="translate(27.5, 230)">
        <rect width="180" height="40" x="10" y="10" fill="lightgrey" style="stroke-width:1;stroke:black;" />
        <text x="100" y="30" fill="black" dominant-baseline="central" text-anchor="middle">TaskList</text>
        <rect width="180" height="70" x="10" y="50" fill="lightgrey" style="stroke-width:1;stroke:black;" />
        <text x="20" y="65" fill="black" dominant-baseline="central">title &lt;pi&gt;</text>
        <text x="20" y="85" fill="black" dominant-baseline="central">owner &lt;pi,fi&gt;</text>
        <text x="20" y="105" fill="black" dominant-baseline="central">description</text>
    </g>
    <g class="entity" id="Task" transform="translate(440, 180)">
        <rect width="170" height="40" x="10" y="10" fill="lightgrey" style="stroke-width:1;stroke:black;" />
        <text x="95" y="30" fill="black" dominant-baseline="central" text-anchor="middle">Task</text>
        <rect width="170" height="170" x="10" y="50" fill="lightgrey" style="stroke-width:1;stroke:black;" />
        <text x="20" y="65" fill="black" dominant-baseline="central">title &lt;pi&gt;</text>
        <text x="20" y="85" fill="black" dominant-baseline="central">list_title &lt;pi,fi1&gt;</text>
        <text x="20" y="105" fill="black" dominant-baseline="central">owner &lt;pi,fi2&gt;</text>
        <text x="20" y="125" fill="black" dominant-baseline="central">description</text>
        <text x="20" y="145" fill="black" dominant-baseline="central">start_date</text>
        <text x="20" y="165" fill="black" dominant-baseline="central">end_date</text>
        <text x="20" y="185" fill="black" dominant-baseline="central">start_time</text>
        <text x="20" y="205" fill="black" dominant-baseline="central">end_time</text>
    </g>
</svg>