<?xml version="1.0" encoding="UTF-8" ?>
<svg width="635" height="390" xmlns="http://www.w3.org/2000/svg">
    <rect id="bg" width="100%" height="100%" x="0" y="0" rx="0" ry="0" fill="white" />
    <g class="entity" id="User">
        <rect width="235" height="40" x="10" y="10" fill="lightgrey" style="stroke-width:1;stroke:black;" />
        <text x="127.5" y="30" fill="black" dominant-baseline="central" text-anchor="middle">User</text>
        <rect width="235" height="30" x="10" y="50" fill="lightgrey" style="stroke-width:1;stroke:black;" />
        <text x="20" y="65" fill="black" dominant-baseline="central">username &lt;pi&gt; USRNAME &lt;M&gt;</text>
    </g>
    <g class="entity" id="UserEmail" transform="translate(435)">
        <rect width="180" height="40" x="10" y="10" fill="lightgrey" style="stroke-width:1;stroke:black;" />
        <text x="100" y="30" fill="black" dominant-baseline="central" text-anchor="middle">UserEmail</text>
        <rect width="180" height="30" x="10" y="50" fill="lightgrey" style="stroke-width:1;stroke:black;" />
        <text x="20" y="65" fill="black" dominant-baseline="central">email &lt;pi&gt; EMAIL &lt;M&gt;</text>
    </g>
    <g class="entity" id="TaskList" transform="translate(27.5, 240)">
        <rect width="180" height="40" x="10" y="10" fill="lightgrey" style="stroke-width:1;stroke:black;" />
        <text x="100" y="30" fill="black" dominant-baseline="central" text-anchor="middle">TaskList</text>
        <rect width="180" height="50" x="10" y="50" fill="lightgrey" style="stroke-width:1;stroke:black;" />
        <text x="20" y="65" fill="black" dominant-baseline="central">title &lt;pi&gt; TITLE &lt;M&gt;</text>
        <text x="20" y="85" fill="black" dominant-baseline="central">description DESC</text>
    </g>
    <g class="entity" id="Task" transform="translate(440, 200)">
        <rect width="170" height="40" x="10" y="10" fill="lightgrey" style="stroke-width:1;stroke:black;" />
        <text x="95" y="30" fill="black" dominant-baseline="central" text-anchor="middle">Task</text>
        <rect width="170" height="130" x="10" y="50" fill="lightgrey" style="stroke-width:1;stroke:black;" />
        <text x="20" y="65" fill="black" dominant-baseline="central">title &lt;pi&gt; TITLE &lt;M&gt;</text>
        <text x="20" y="85" fill="black" dominant-baseline="central">description DESC</text>
        <text x="20" y="105" fill="black" dominant-baseline="central">start_date SDATE &lt;M&gt;</text>
        <text x="20" y="125" fill="black" dominant-baseline="central">end_date EDATE &lt;M&gt;</text>
        <text x="20" y="145" fill="black" dominant-baseline="central">start_time STIME</text>
        <text x="20" y="165" fill="black" dominant-baseline="central">end_time ETIME</text>
    </g>
    <g class="relationship" id="EmailOfUser">
        <line x1="255" y1="37.5" x2="255" y2="52.5" stroke-width="1" stroke="black" />
        <line x1="245" y1="45" x2="445" y2="45" stroke-width="1" stroke="black" />
        <line x1="434.5" y1="37.5" x2="434.5" y2="52.5" stroke-width="1" stroke="black" />
        <line x1="434.5" y1="45" x2="445" y2="35" stroke-width="1" stroke="black" />
        <line x1="434.5" y1="45" x2="445" y2="55" stroke-width="1" stroke="black" />
        <text x="345" y="30" fill="black" dominant-baseline="central" text-anchor="middle">EmailOfUser</text>
    </g>
    <g class="relationship" id="TaskListOfUser">
        <line x1="75" y1="90" x2="90" y2="90" stroke-width="1" stroke="black" />
        <line x1="82.5" y1="80" x2="82.5" y2="230" stroke-width="1" stroke="black" />
        <circle r="5" cx="82.5" cy="235" />
        <circle r="4" cx="82.5" cy="235" fill="white" />
        <line x1="82.5" y1="240" x2="72.5" y2="250" stroke-width="1" stroke="black" />
        <line x1="82.5" y1="240" x2="82.5" y2="250" stroke-width="1" stroke="black" />
        <line x1="82.5" y1="240" x2="92.5" y2="250" stroke-width="1" stroke="black" />
        <text x="82.5" y="165" fill="black" dominant-baseline="central" text-anchor="middle">TaskListOfUser</text>
    </g>
    <g class="relationship" id="SharedTaskList">
        <line x1="162.5" y1="80" x2="172.5" y2="90" stroke-width="1" stroke="black" />
        <line x1="172.5" y1="80" x2="172.5" y2="90" stroke-width="1" stroke="black" />
        <line x1="182.5" y1="80" x2="172.5" y2="90" stroke-width="1" stroke="black" />
        <circle r="5" cx="172.5" cy="95" />
        <circle r="4" cx="172.5" cy="95" fill="white" />
        <line x1="172.5" y1="100" x2="172.5" y2="239" stroke-width="1" stroke="black" />
        <circle r="5" cx="172.5" cy="235" />
        <circle r="4" cx="172.5" cy="235" fill="white" />
        <line x1="172.5" y1="240" x2="162.5" y2="250" stroke-width="1" stroke="black" />
        <line x1="172.5" y1="240" x2="172.5" y2="250" stroke-width="1" stroke="black" />
        <line x1="172.5" y1="240" x2="182.5" y2="250" stroke-width="1" stroke="black" />
        <text x="172.5" y="165" fill="black" dominant-baseline="central" text-anchor="middle">SharedTaskList</text>
    </g>
    <g class="relationship" id="TaskOfTaskList">
        <line x1="227.5" y1="287.5" x2="227.5" y2="302.5" stroke-width="1" stroke="black" />
        <line x1="217.5" y1="295" x2="430" y2="295" stroke-width="1" stroke="black" />
        <circle r="5" cx="435" cy="295" />
        <circle r="4" cx="435" cy="295" fill="white" />
        <line x1="439.5" y1="295" x2="450" y2="285" stroke-width="1" stroke="black" />
        <line x1="439.5" y1="295" x2="450" y2="295" stroke-width="1" stroke="black" />
        <line x1="439.5" y1="295" x2="450" y2="305" stroke-width="1" stroke="black" />
        <text x="333.75" y="280" fill="black" dominant-baseline="central" text-anchor="middle">TaskOfTaskList</text>
    </g>
    <g class="relationship" id="AssignedTo">
        <path d="M230 80 L230 90 A5 5, 0, 0 0, 230 100 M230 90 A5 5, 0, 0 1, 230 100 L230 110 L333.75 110 L333.75 240 L430 240 A5 5, 0, 1 0, 435 235 M430 240 A5 5, 0, 0 1, 435 235 M440 240 L450 240 M440 240 L450 230 M440 240 L450 250" fill="none" stroke-width="1" stroke="black" />
        <text x="333.75" y="160" fill="black" dominant-baseline="central" text-anchor="middle">AssignedTo</text>
    </g>
</svg>