<?xml version="1.0" encoding="UTF-8" ?>
<svg width="190" height="260" xmlns="http://www.w3.org/2000/svg">
    <rect id="bg" width="100%" height="100%" x="0" y="0" rx="0" ry="0" fill="white" />
    <g class="entity" id="Task">
        <path d="M10 10 L180 10 L180 50 L10 50 Z M10 50 L10 65 L180 65 L180 50 Z" fill="lightgrey" stroke-width="1" stroke="black" />
        <g class="entity-text" fill="black">
            <text x="95" y="30" dominant-baseline="central" text-anchor="middle">Task</text>
        </g>
    </g>
    <g class="entity" id="SubTask" transform="translate(0, 185)">
        <path d="M10 10 L180 10 L180 50 L10 50 Z M10 50 L10 65 L180 65 L180 50 Z" fill="lightgrey" stroke-width="1" stroke="black" />
        <g class="entity-text" fill="black">
            <text x="95" y="30" dominant-baseline="central" text-anchor="middle">Subtask</text>
        </g>
    </g>
    <g class="subtype" id="TypeOfTask" stroke-width="1" stroke="black" fill="none" transform="translate(-440,-315)">
        <polygon points="535,380 530,400 540,400" fill="black" />
        <line x1="535" y1="400" x2="535" y2="430" />
        <path d="M525 440 a1 1, 0, 0 1, 20 0 Z" />
        <line x1="525" y1="438.5" x2="545" y2="438.5" />
        <line x1="535" y1="440" x2="535" y2="510" />
        <text x="535" y="415" fill="black" stroke="none" dominant-baseline="central" text-anchor="middle">TypeOfTask</text>
    </g>
</svg>