<?xml version="1.0" encoding="UTF-8" ?>
<svg width="635" height="410" xmlns="http://www.w3.org/2000/svg">
    <rect id="bg" width="100%" height="100%" x="0" y="0" rx="0" ry="0" fill="white" />
    <g class="entity">
        <rect width="260" height="40" x="10" y="10" fill="lightgrey" style="stroke-width:1;stroke:black;" />
        <text x="140" y="30" fill="black" dominant-baseline="central" text-anchor="middle">User</text>
        <rect width="260" height="30" x="10" y="50" fill="lightgrey" style="stroke-width:1;stroke:black;" />
        <text x="20" y="65" fill="black" dominant-baseline="central">username USRNAME &lt;pk&gt;</text>
    </g>
    <g class="entity" id="TaskList" transform="translate(27.5, 230)">
        <rect width="190" height="40" x="10" y="10" fill="lightgrey" style="stroke-width:1;stroke:black;" />
        <text x="102.5" y="30" fill="black" dominant-baseline="central" text-anchor="middle">TaskList</text>
        <rect width="190" height="70" x="10" y="50" fill="lightgrey" style="stroke-width:1;stroke:black;" />
        <text x="20" y="65" fill="black" dominant-baseline="central">title TITLE &lt;pk&gt;</text>
        <text x="20" y="85" fill="black" dominant-baseline="central">owner USRNAME &lt;pk,fk&gt;</text>
        <text x="20" y="105" fill="black" dominant-baseline="central">description DESC</text>
    </g>
    <g class="entity" id="Task" transform="translate(415, 180)">
        <rect width="200" height="40" x="10" y="10" fill="lightgrey" style="stroke-width:1;stroke:black;" />
        <text x="110" y="30" fill="black" dominant-baseline="central" text-anchor="middle">Task</text>
        <rect width="200" height="170" x="10" y="50" fill="lightgrey" style="stroke-width:1;stroke:black;" />
        <text x="20" y="65" fill="black" dominant-baseline="central">title TITLE &lt;pk&gt;</text>
        <text x="20" y="85" fill="black" dominant-baseline="central">list_title TITLE &lt;pk,fk1&gt;</text>
        <text x="20" y="105" fill="black" dominant-baseline="central">owner USRNAME &lt;pk,fk2&gt;</text>
        <text x="20" y="125" fill="black" dominant-baseline="central">description DESC</text>
        <text x="20" y="145" fill="black" dominant-baseline="central">start_date SDATE</text>
        <text x="20" y="165" fill="black" dominant-baseline="central">end_date EDATE</text>
        <text x="20" y="185" fill="black" dominant-baseline="central">start_time STIME</text>
        <text x="20" y="205" fill="black" dominant-baseline="central">end_time ETIME</text>
    </g>
</svg>